<svg xmlns="http://www.w3.org/2000/svg" viewBox="0 0 4.99 726.73"><defs><style>.cls-1{fill:#6d99af;}</style></defs><title>资源 1</title><g id="图层_2" data-name="图层 2"><g id="图层_1-2" data-name="图层 1"><polygon class="cls-1" points="2.49 0 2.83 20 2.16 20 2.49 0"/><polygon class="cls-1" points="3.09 40 3.33 60 1.66 60 1.9 40 3.09 40"/><polygon class="cls-1" points="3.58 80 3.79 100 1.19 100 1.41 80 3.58 80"/><polygon class="cls-1" points="3.94 120 4.09 140 0.89 140 1.04 120 3.94 120"/><polygon class="cls-1" points="4.25 160 4.4 180 0.59 180 0.74 160 4.25 160"/><polygon class="cls-1" points="4.55 200 4.65 220 0.34 220 0.44 200 4.55 200"/><polygon class="cls-1" points="4.73 240 4.81 260 0.18 260 0.26 240 4.73 240"/><polygon class="cls-1" points="4.88 280 4.91 300 0.08 300 0.1 280 4.88 280"/><polygon class="cls-1" points="4.94 320 4.96 340 0.03 340 0.05 320 4.94 320"/><polygon class="cls-1" points="4.99 360 4.97 380 0.01 380 0 360 4.99 360"/><polygon class="cls-1" points="4.95 400 4.92 420 0.07 420 0.04 400 4.95 400"/><polygon class="cls-1" points="4.9 440 4.84 460 0.15 460 0.09 440 4.9 440"/><polygon class="cls-1" points="4.76 480 4.68 500 0.3 500 0.23 480 4.76 480"/><polygon class="cls-1" points="4.61 520 4.48 540 0.51 540 0.38 520 4.61 520"/><polygon class="cls-1" points="4.35 560 4.22 580 0.77 580 0.64 560 4.35 560"/><polygon class="cls-1" points="4.05 600 3.87 620 1.12 620 0.94 600 4.05 600"/><polygon class="cls-1" points="3.67 640 3.42 660 1.57 660 1.32 640 3.67 640"/><polygon class="cls-1" points="3.17 680 2.92 700 2.06 700 1.81 680 3.17 680"/><polygon class="cls-1" points="2.61 720 2.49 726.73 2.38 720 2.61 720"/></g></g></svg>